<svg height="64" viewBox="0 0 64 64" width="64" xmlns="http://www.w3.org/2000/svg"><g fill="none" fill-rule="evenodd"><path d="m10 46v12m23-12v12m22-12v12" stroke="#0a3586" stroke-linecap="square" stroke-width="2"/><g fill="#5b68c0"><path d="m10 47c3.8659932 0 7-1.6111593 7-11s-3.1340068-21-7-21c-3.86599325 0-7 11.6111593-7 21s3.13400675 11 7 11zm45 0c3.8659932 0 7-1.2083694 7-8.25s-3.1340068-15.75-7-15.75-7 8.7083694-7 15.75 3.1340068 8.25 7 8.25zm-22-2c3.8659932 0 7-2.1146465 7-14.4375s-3.1340068-27.5625-7-27.5625-7 15.2396465-7 27.5625 3.1340068 14.4375 7 14.4375zm-8 15c0-3.8659932-3.1340068-7-7-7s-7 3.1340068-7 7z"/><path d="m37 60c0-3.8659932-3.1340068-7-7-7s-7 3.1340068-7 7zm16 0c0-3.8659932-3.1340068-7-7-7s-7 3.1340068-7 7z"/><path d="m42 60c0-2.7614237-2.2385763-5-5-5s-5 2.2385763-5 5zm-15 0c0-2.7614237-2.2385763-5-5-5s-5 2.2385763-5 5z"/></g><path d="m6 60h53.0377224" stroke="#0a3586" stroke-linecap="square" stroke-width="2"/><path d="m8 5 5 5m31 4 7 7m-29.5495098-2.5495098 2.5495098 2.5495098m30.4504902 10.4504902 2.5495098 2.5495098m-3.5495098 2.4504902 2.5495098 2.5495098m-53.54950976-.5495098 2.54950976 2.5495098m19-13 7 7m-20-4 7 7m-1-31 7 7m10 18 11 11m-15.5276926-26.5276926 4.5276926 4.5276926m8.4723074 7.4723074 4.5276926 4.5276926" stroke="#b4dffb" stroke-linecap="square" stroke-width="2"/></g></svg>