<svg height="32" viewBox="0 0 32 32" width="32" xmlns="http://www.w3.org/2000/svg"><path d="m29.5 7c-1.381 0-2.5 1.12-2.5 2.5 0 .284.058.551.144.805l-6.094 5.247c-.427-.341-.961-.553-1.55-.553-.68 0-1.294.273-1.744.713l-4.774-2.39c-.093-1.296-1.162-2.323-2.482-2.323-1.38 0-2.5 1.12-2.5 2.5 0 .378.09.732.24 1.053l-4.867 5.612c-.273-.102-.564-.166-.873-.166-1.381 0-2.5 1.119-2.5 2.5s1.119 2.5 2.5 2.5 2.5-1.119 2.5-2.5c0-.332-.068-.649-.186-.939l4.946-5.685c.236.073.48.124.74.124.727 0 1.377-.316 1.834-.813l4.669 2.341c.017 1.367 1.127 2.471 2.497 2.471 1.381 0 2.5-1.119 2.5-2.5 0-.044-.011-.086-.013-.13l6.503-5.587c.309.137.649.216 1.01.216 1.381 0 2.5-1.119 2.5-2.5s-1.119-2.5-2.5-2.5z"/></svg>