<svg height="64" viewBox="0 0 64 64" width="64" xmlns="http://www.w3.org/2000/svg"><g fill="none" fill-rule="evenodd"><path d="m24.0615422 39h-13.0613686c-2.20923487 0-4.0001736 1.7964986-4.0001736 4.0049072v-.0927759c0 2.2118491 1.78840417 4.0049071 3.9934144 4.0049071h20.9518349c2.2055019 0 3.9934144 1.7987097 3.9934144 4.0052925v2.0504405c0 2.212062 1.790837 4.0052925 4.0008177 4.0052925h20.9004392" stroke="#325aa6" stroke-linecap="round" stroke-width="4"/><path d="m54 48v7" stroke="#325aa6" stroke-linecap="square" stroke-width="2"/><path d="m35 7.26727153c1.3273403-3.09741582 4.4037732-5.26727153 7.987003-5.26727153 4.796863 0 8.6854888 3.88862576 8.6854888 8.6854887 0 2.8948576-1.416237 5.4589352-3.5936486 7.0371709.4495676-1.0490889.6984857-2.2045841.6984857-3.4182172 0-4.79686301-3.8886258-8.68548876-8.6854888-8.68548876-1.9020054 0-3.6612174.61137127-5.0918401 1.64831789zm19 41.73272847c3.8659932 0 7-1.5608105 7-10.65625s-3.1340068-20.34375-7-20.34375-7 11.2483105-7 20.34375 3.1340068 10.65625 7 10.65625z" fill="#325aa6"/><path d="m11 19h29l-5 16h-29z" fill="#5ea7ff"/><path d="m40 19h-29l5 16h29" fill="#325aa6"/><path d="m28 9v4m-2-2h4m28-6v4m-2-2h4" stroke="#5ea7ff" stroke-linecap="round" stroke-linejoin="round" stroke-width="2"/></g></svg>