<svg height="64" viewBox="0 0 64 64" width="64" xmlns="http://www.w3.org/2000/svg"><g fill="none" fill-rule="evenodd"><path d="m39 48h6v11h-6z" fill="#bd7575"/><path d="m42 32 18 18h-36z" fill="#5ea7ff"/><path d="m42 28 14 14h-28z" fill="#5b68c0"/><path d="m42 23 12 12h-24z" fill="#5ea7ff"/><path d="m42 18 10 10h-20z" fill="#5b68c0"/><path d="m42 11 7 11h-14z" fill="#5ea7ff"/><path d="m8.41613251 10.5970292c1.88775729-3.34134213 5.47239039-5.5970292 9.58386749-5.5970292 6.0751322 0 11 4.92486775 11 11 0 4.8203529-3.1005645 8.9165302-7.4161325 10.4029708.9015991-1.5958362 1.4161325-3.4393156 1.4161325-5.4029708 0-6.0751322-4.9248678-11-11-11-1.2547793 0-2.46048805.210096-3.58386749.5970292z" fill="#325aa6" transform="matrix(-1 0 0 1 37.416 0)"/><path d="m26 20v4m-2-2h4m-23 9v4m-2-2h4m11 2v4m-2-2h4" stroke="#5ea7ff" stroke-linecap="round" stroke-linejoin="round" stroke-width="2"/></g></svg>