<svg height="64" viewBox="0 0 64 64" width="64" xmlns="http://www.w3.org/2000/svg"><g fill="none" fill-rule="evenodd"><path d="m34.6358081 11.4269908c2.3540898-4.41895556 7.0078587-7.4269908 12.3641919-7.4269908 7.7319865 0 14 6.2680135 14 14 0 5.0301751-2.6528577 9.4407421-6.6358081 11.9089359 1.0440913-1.9599054 1.6358081-4.1973558 1.6358081-6.5730091 0-7.7319865-6.2680135-14.00000003-14-14.00000003-2.7018114 0-5.2248666.76534593-7.3641919 2.09106403z" fill="#325aa6"/><path d="m4 53h55v3.5c0 1.9329966-1.5574476 3.5-3.5031659 3.5h-47.99366822c-1.93474509 0-3.50316588-1.5709366-3.50316588-3.5z" fill="#5ea7ff"/><path d="m4.035 51.002 8.712-19.897 5.32 5.363 11.549-29.612 19.111 37.553 6.079-5.507 4.245 12.1z" fill="#325aa6"/><g stroke="#5ea7ff" stroke-linecap="round" stroke-width="2"><path d="m49 26v4m-2-2h4m-32-22v4m-2-2h4" stroke-linejoin="round"/><path d="m14.336 38.475 5.127 3.861 8.37-21.485"/></g></g></svg>