<svg height="64" viewBox="0 0 64 64" width="64" xmlns="http://www.w3.org/2000/svg"><g fill="none" fill-rule="evenodd"><path d="m17 11h35l6 48h-51z" fill="#0a3586"/><path d="m55.407 58.683-3.954-20.136-7.209-2.993 2.688-28.554-25.252 3.28-1.68 47.831z" fill="#5b68c0"/><path d="m25 60c0-3.8659932-3.1340068-7-7-7s-7 3.1340068-7 7z" fill="#0a3586"/><path d="m53 60c0-3.8659932-3.1340068-7-7-7s-7 3.1340068-7 7zm-26 0c0-2.7614237-2.2385763-5-5-5s-5 2.2385763-5 5z" fill="#325aa6"/><path d="m22 20h22.0249844" stroke="#595959" stroke-linecap="square" stroke-width="2"/><path d="m23 21h20v25.0035095c0 1.654916-1.3122559 2.6684265-2.9081717 2.2694476l-14.1836566-3.5459142c-1.6061389-.4015347-2.9081717-2.0630344-2.9081717-3.7338912z" fill="#5ea7ff"/><path d="m28 26v9" stroke="#b4dffb" stroke-linecap="square" stroke-width="2"/><path d="m26 39h14v20h-14z" fill="#5ea7ff"/><path d="m37 60c0-3.8659932-3.1340068-7-7-7s-7 3.1340068-7 7z" fill="#0a3586"/><path d="m36 41v9" stroke="#b4dffb" stroke-linecap="square" stroke-width="2"/><path d="m42 60c0-2.7614237-2.2385763-5-5-5s-5 2.2385763-5 5z" fill="#0a3586"/><path d="m6 60h53.0377224" stroke="#5ea7ff" stroke-linecap="square" stroke-width="2"/></g></svg>